<?xml version="1.0" encoding="UTF-8"?>
<svg width="473px" height="473px" viewBox="0 0 473 473" version="1.1" xmlns="http://www.w3.org/2000/svg" xmlns:xlink="http://www.w3.org/1999/xlink">
    <!-- Generator: Sketch 51.3 (57544) - http://www.bohemiancoding.com/sketch -->
    <title>Group</title>
    <desc>Created with Sketch.</desc>
    <defs>
        <linearGradient x1="5.40722969%" y1="69.2750027%" x2="69.6439436%" y2="14.0907594%" id="linearGradient-1">
            <stop stop-color="#F7F9FA" stop-opacity="0" offset="0%"></stop>
            <stop stop-color="#F7F9FA" offset="100%"></stop>
        </linearGradient>
    </defs>
    <g id="Page-1" stroke="none" stroke-width="1" fill="none" fill-rule="evenodd">
        <g id="bodaco_vector" transform="translate(16.000000, -54.000000)">
            <g id="Group">
                <circle id="Oval" stroke="#000000" stroke-width="30.2466492" fill="#FFBF41" fill-rule="nonzero" cx="220.608295" cy="290.391705" r="220.608295"></circle>
                <path d="M143.926267,171.239631 L237.700129,171.239631 C246.76045,171.239631 255.707384,172.315528 264.541198,174.467355 C273.375013,176.619181 281.246048,180.130003 288.154544,184.999926 C295.06304,189.869849 300.669029,196.155353 304.972682,203.856627 C309.276335,211.5579 311.428129,220.844591 311.428129,231.716977 C311.428129,245.30746 307.577549,256.519439 299.876276,265.353253 C292.175004,274.187068 282.095545,280.529198 269.637604,284.379834 L269.637604,285.059355 C284.813642,287.097926 297.271397,292.987047 307.011244,302.726894 C316.751091,312.466741 321.62094,325.490756 321.62094,341.799336 C321.62094,354.936803 319.016137,365.978904 313.806452,374.925972 C308.596767,383.87304 301.745001,391.064562 293.250949,396.500756 C284.756898,401.93695 275.017197,405.844154 264.031558,408.222488 C253.045918,410.600823 241.890564,411.789972 230.565161,411.789972 L143.926267,411.789972 L143.926267,171.239631 Z M186.736074,269.090618 L224.789235,269.090618 C239.059241,269.090618 249.931465,266.259309 257.40623,260.596608 C264.880996,254.933907 268.618323,246.892992 268.618323,236.473622 C268.618323,225.601236 264.767743,217.900078 257.06647,213.369917 C249.365197,208.839756 237.360451,206.57471 221.051871,206.57471 L186.736074,206.57471 L186.736074,269.090618 Z M186.736074,375.775373 L225.128995,375.775373 C230.565188,375.775373 236.45431,375.378991 242.796535,374.586212 C249.138759,373.793433 254.971255,372.151274 260.294194,369.659687 C265.617132,367.168099 270.033974,363.544024 273.544848,358.787355 C277.055722,354.030686 278.811134,347.688556 278.811134,339.760774 C278.811134,327.076323 274.507545,318.242643 265.90024,313.259465 C257.292934,308.276287 244.268917,305.784737 226.827797,305.784737 L186.736074,305.784737 L186.736074,375.775373 Z" id="B" fill="#000000" fill-rule="nonzero"></path>
                <circle id="Oval-2" stroke="#000000" stroke-width="7.29069103" cx="220.608295" cy="290.391705" r="166.341014"></circle>
                <path d="M497.843318,319.884793 C497.843318,206.516259 405.939962,114.612903 292.571429,114.612903 C179.202895,114.612903 87.2995392,206.516259 87.2995392,319.884793 C87.2995392,319.884793 497.843318,319.884793 497.843318,319.884793 Z" id="Oval-3" fill="url(#linearGradient-1)" fill-rule="nonzero" transform="translate(292.571429, 217.248848) rotate(44.000000) translate(-292.571429, -217.248848) "></path>
            </g>
        </g>
    </g>
</svg>